<mxfile host="app.diagrams.net" modified="2021-05-13T00:07:00.917Z" agent="5.0 (Macintosh; Intel Mac OS X 10_15_6) AppleWebKit/605.1.15 (KHTML, like Gecko) Version/14.0.3 Safari/605.1.15" etag="Bl2eRK_o2fdSSk2hsUV2" version="14.6.12" type="github">
  <diagram id="zAs5lEhep1FQ8h4ewNx3" name="Page-1">
    <mxGraphModel dx="830" dy="774" grid="1" gridSize="10" guides="1" tooltips="1" connect="1" arrows="1" fold="1" page="1" pageScale="1" pageWidth="850" pageHeight="1100" math="0" shadow="0">
      <root>
        <mxCell id="0" />
        <mxCell id="1" parent="0" />
        <mxCell id="OmXmISmj4j7JAIJjR71S-1" value="" style="rounded=0;whiteSpace=wrap;html=1;fillColor=#f5f5f5;fontColor=#333333;sketch=0;glass=1;shadow=0;" vertex="1" parent="1">
          <mxGeometry x="20" y="110" width="820" height="480" as="geometry" />
        </mxCell>
        <mxCell id="OmXmISmj4j7JAIJjR71S-2" value="&lt;font style=&quot;font-size: 19px&quot;&gt;BeeTesting-AB Testing for enterprises&lt;/font&gt;" style="rounded=1;whiteSpace=wrap;html=1;fillColor=#dae8fc;strokeColor=#6c8ebf;sketch=1;fillStyle=zigzag;" vertex="1" parent="1">
          <mxGeometry x="245" y="50" width="390" height="60" as="geometry" />
        </mxCell>
        <mxCell id="OmXmISmj4j7JAIJjR71S-3" value="&lt;font face=&quot;Comic Sans MS&quot;&gt;New Application or NewVersion&lt;/font&gt;" style="whiteSpace=wrap;html=1;aspect=fixed;rounded=0;shadow=0;glass=0;sketch=1;" vertex="1" parent="1">
          <mxGeometry x="70" y="250" width="80" height="80" as="geometry" />
        </mxCell>
        <mxCell id="OmXmISmj4j7JAIJjR71S-4" value="&lt;br&gt;&lt;br&gt;PM" style="shape=actor;whiteSpace=wrap;html=1;sketch=1;" vertex="1" parent="1">
          <mxGeometry x="90" y="170" width="40" height="60" as="geometry" />
        </mxCell>
        <mxCell id="OmXmISmj4j7JAIJjR71S-6" value="" style="endArrow=classic;html=1;exitX=0.5;exitY=1;exitDx=0;exitDy=0;" edge="1" parent="1" source="OmXmISmj4j7JAIJjR71S-4" target="OmXmISmj4j7JAIJjR71S-3">
          <mxGeometry width="50" height="50" relative="1" as="geometry">
            <mxPoint x="430" y="430" as="sourcePoint" />
            <mxPoint x="480" y="380" as="targetPoint" />
          </mxGeometry>
        </mxCell>
        <mxCell id="OmXmISmj4j7JAIJjR71S-7" value="" style="endArrow=classic;html=1;sketch=1;" edge="1" parent="1">
          <mxGeometry relative="1" as="geometry">
            <mxPoint x="170" y="280" as="sourcePoint" />
            <mxPoint x="330" y="280" as="targetPoint" />
          </mxGeometry>
        </mxCell>
        <mxCell id="OmXmISmj4j7JAIJjR71S-8" value="Upload code" style="edgeLabel;resizable=0;html=1;align=center;verticalAlign=middle;" connectable="0" vertex="1" parent="OmXmISmj4j7JAIJjR71S-7">
          <mxGeometry relative="1" as="geometry" />
        </mxCell>
        <mxCell id="OmXmISmj4j7JAIJjR71S-9" value="Source" style="edgeLabel;resizable=0;html=1;align=left;verticalAlign=bottom;" connectable="0" vertex="1" parent="OmXmISmj4j7JAIJjR71S-7">
          <mxGeometry x="-1" relative="1" as="geometry" />
        </mxCell>
        <mxCell id="OmXmISmj4j7JAIJjR71S-10" value="&lt;font face=&quot;Comic Sans MS&quot;&gt;Hosted &amp;nbsp;address on web&lt;/font&gt;" style="rounded=1;whiteSpace=wrap;html=1;shadow=0;glass=1;sketch=1;strokeColor=#6c8ebf;fillColor=#dae8fc;" vertex="1" parent="1">
          <mxGeometry x="340" y="260" width="120" height="60" as="geometry" />
        </mxCell>
        <mxCell id="OmXmISmj4j7JAIJjR71S-13" value="" style="endArrow=classic;html=1;sketch=1;" edge="1" parent="1">
          <mxGeometry relative="1" as="geometry">
            <mxPoint x="480" y="280" as="sourcePoint" />
            <mxPoint x="640" y="280" as="targetPoint" />
          </mxGeometry>
        </mxCell>
        <mxCell id="OmXmISmj4j7JAIJjR71S-14" value="Target questions" style="edgeLabel;resizable=0;html=1;align=center;verticalAlign=middle;" connectable="0" vertex="1" parent="OmXmISmj4j7JAIJjR71S-13">
          <mxGeometry relative="1" as="geometry" />
        </mxCell>
        <mxCell id="OmXmISmj4j7JAIJjR71S-15" value="&lt;font face=&quot;Comic Sans MS&quot;&gt;Example:&lt;br&gt;1. How is the new layout?&lt;br&gt;2.New feature to customize your chart&lt;br&gt;&lt;/font&gt;" style="rounded=1;whiteSpace=wrap;html=1;shadow=0;glass=1;sketch=1;" vertex="1" parent="1">
          <mxGeometry x="660" y="230" width="120" height="100" as="geometry" />
        </mxCell>
        <mxCell id="OmXmISmj4j7JAIJjR71S-16" value="&lt;font face=&quot;Comic Sans MS&quot;&gt;Internal users&lt;/font&gt;" style="rounded=1;whiteSpace=wrap;html=1;shadow=0;glass=1;sketch=1;strokeColor=#6c8ebf;fillColor=#dae8fc;gradientColor=#ffffff;" vertex="1" parent="1">
          <mxGeometry x="350" y="370" width="100" height="20" as="geometry" />
        </mxCell>
        <mxCell id="OmXmISmj4j7JAIJjR71S-17" value="&lt;font face=&quot;Comic Sans MS&quot;&gt;Marketing team&lt;/font&gt;" style="rounded=1;whiteSpace=wrap;html=1;shadow=0;glass=1;sketch=1;strokeColor=#6c8ebf;fillColor=#dae8fc;gradientColor=#ffffff;" vertex="1" parent="1">
          <mxGeometry x="250" y="390" width="100" height="20" as="geometry" />
        </mxCell>
        <mxCell id="OmXmISmj4j7JAIJjR71S-18" value="&lt;font face=&quot;Comic Sans MS&quot;&gt;Pro users&lt;/font&gt;" style="rounded=1;whiteSpace=wrap;html=1;shadow=0;glass=1;sketch=1;strokeColor=#d79b00;fillColor=#ffe6cc;gradientColor=#ffffff;" vertex="1" parent="1">
          <mxGeometry x="450" y="390" width="110" height="20" as="geometry" />
        </mxCell>
        <mxCell id="OmXmISmj4j7JAIJjR71S-20" value="" style="endArrow=classic;html=1;sketch=1;" edge="1" parent="1">
          <mxGeometry width="50" height="50" relative="1" as="geometry">
            <mxPoint x="399.5" y="320" as="sourcePoint" />
            <mxPoint x="400" y="370" as="targetPoint" />
          </mxGeometry>
        </mxCell>
        <mxCell id="OmXmISmj4j7JAIJjR71S-21" value="Testing" style="ellipse;shape=cloud;whiteSpace=wrap;html=1;rounded=1;shadow=0;glass=1;sketch=1;strokeColor=#9673a6;fillColor=#e1d5e7;" vertex="1" parent="1">
          <mxGeometry x="350" y="440" width="100" height="50" as="geometry" />
        </mxCell>
        <mxCell id="OmXmISmj4j7JAIJjR71S-22" value="" style="endArrow=classic;html=1;sketch=1;" edge="1" parent="1">
          <mxGeometry width="50" height="50" relative="1" as="geometry">
            <mxPoint x="399.5" y="390" as="sourcePoint" />
            <mxPoint x="400" y="440" as="targetPoint" />
          </mxGeometry>
        </mxCell>
        <mxCell id="OmXmISmj4j7JAIJjR71S-23" value="" style="endArrow=classic;html=1;entryX=0.5;entryY=1;entryDx=0;entryDy=0;sketch=1;shadow=1;" edge="1" parent="1" target="OmXmISmj4j7JAIJjR71S-15">
          <mxGeometry relative="1" as="geometry">
            <mxPoint x="440" y="470" as="sourcePoint" />
            <mxPoint x="800" y="350" as="targetPoint" />
            <Array as="points">
              <mxPoint x="630" y="470" />
              <mxPoint x="630" y="400" />
              <mxPoint x="630" y="350" />
              <mxPoint x="720" y="350" />
            </Array>
          </mxGeometry>
        </mxCell>
        <mxCell id="OmXmISmj4j7JAIJjR71S-24" value="&lt;font face=&quot;Comic Sans MS&quot; style=&quot;font-size: 13px&quot;&gt;Feedback&lt;/font&gt;" style="edgeLabel;resizable=0;html=1;align=center;verticalAlign=middle;" connectable="0" vertex="1" parent="OmXmISmj4j7JAIJjR71S-23">
          <mxGeometry relative="1" as="geometry" />
        </mxCell>
        <mxCell id="OmXmISmj4j7JAIJjR71S-26" value="&lt;font face=&quot;Comic Sans MS&quot;&gt;Dashboard&lt;/font&gt;" style="endArrow=classic;html=1;shadow=1;sketch=1;" edge="1" parent="1">
          <mxGeometry width="50" height="50" relative="1" as="geometry">
            <mxPoint x="780" y="320" as="sourcePoint" />
            <mxPoint x="780" y="470" as="targetPoint" />
          </mxGeometry>
        </mxCell>
        <mxCell id="OmXmISmj4j7JAIJjR71S-27" value="KPIs" style="rounded=0;whiteSpace=wrap;html=1;shadow=0;glass=1;sketch=1;strokeColor=#000000;gradientColor=#ffffff;" vertex="1" parent="1">
          <mxGeometry x="730" y="470" width="90" height="60" as="geometry" />
        </mxCell>
      </root>
    </mxGraphModel>
  </diagram>
</mxfile>
